<svg xmlns="http://www.w3.org/2000/svg" xmlns:xlink="http://www.w3.org/1999/xlink" width="24" height="25" viewBox="0 0 24 25">
    <defs>
        <path id="a" d="M12 22.91c6.025 0 10.91-4.885 10.91-10.91S18.024 1.09 12 1.09 1.09 5.976 1.09 12 5.976 22.91 12 22.91zM12 24C5.373 24 0 18.627 0 12S5.373 0 12 0s12 5.373 12 12-5.373 12-12 12zM6.82 10.044h2.127v7.41H6.82v-7.41zm1.01-.927h-.016c-.77 0-1.269-.567-1.269-1.284 0-.732.514-1.288 1.3-1.288.784 0 1.266.554 1.281 1.286 0 .717-.497 1.286-1.296 1.286zm9.625 8.338h-2.412v-3.836c0-1.004-.377-1.688-1.206-1.688-.634 0-.987.462-1.151.908-.062.16-.052.382-.052.605v4.01h-2.389s.03-6.793 0-7.41h2.389v1.163c.14-.509.904-1.235 2.122-1.235 1.511 0 2.699 1.067 2.699 3.361v4.122z"/>
    </defs>
    <g fill="none" fill-rule="evenodd" transform="translate(0 .618)">
        <mask id="b" fill="#fff">
            <use xlink:href="#a"/>
        </mask>
        <use fill="#000" fill-rule="nonzero" xlink:href="#a"/>
        <g fill="#F2FCFF" mask="url(#b)">
            <path d="M0 0h24v24H0z"/>
        </g>
    </g>
</svg>
