<svg xmlns="http://www.w3.org/2000/svg" xmlns:xlink="http://www.w3.org/1999/xlink" width="24" height="25" viewBox="0 0 24 25">
    <defs>
        <path id="a" d="M12 22.91c6.025 0 10.91-4.885 10.91-10.91S18.024 1.09 12 1.09 1.09 5.976 1.09 12 5.976 22.91 12 22.91zM12 24C5.373 24 0 18.627 0 12S5.373 0 12 0s12 5.373 12 12-5.373 12-12 12zm4.65-14.811c.475-.06.928-.193 1.35-.39a4.912 4.912 0 0 1-1.173 1.283c.005.106.007.213.007.32 0 3.276-2.363 7.053-6.686 7.053a6.408 6.408 0 0 1-3.603-1.114 4.562 4.562 0 0 0 3.48-1.027c-1.029-.019-1.897-.736-2.195-1.72a2.21 2.21 0 0 0 1.061-.044c-1.076-.227-1.886-1.229-1.886-2.43v-.03c.318.184.68.297 1.065.31a2.518 2.518 0 0 1-1.045-2.064c0-.454.115-.88.318-1.247 1.16 1.5 2.89 2.487 4.843 2.59-.04-.18-.06-.37-.06-.564 0-1.369 1.052-2.479 2.35-2.479.676 0 1.287.301 1.715.783a4.557 4.557 0 0 0 1.492-.601 2.46 2.46 0 0 1-1.032 1.37z"/>
    </defs>
    <g fill="none" fill-rule="evenodd" transform="translate(0 .618)">
        <mask id="b" fill="#fff">
            <use xlink:href="#a"/>
        </mask>
        <use fill="#000" fill-rule="nonzero" xlink:href="#a"/>
        <g fill="#F2FCFF" mask="url(#b)">
            <path d="M0 0h24v24H0z"/>
        </g>
    </g>
</svg>
