<svg xmlns="http://www.w3.org/2000/svg" xmlns:xlink="http://www.w3.org/1999/xlink" width="24" height="25" viewBox="0 0 24 25">
    <defs>
        <path id="a" d="M12 22.648c6.03 0 10.91-4.77 10.91-10.643 0-5.872-4.88-10.642-10.91-10.642S1.09 6.133 1.09 12.005 5.97 22.648 12 22.648zm0 1.09c-6.627 0-12-5.253-12-11.733S5.373.272 12 .272s12 5.253 12 11.733S18.627 23.74 12 23.74zm-3.313-8.796l.009-2.16.413-.004.412-.005-.004-.333-.006-.333-1.192-.005-1.19-.005v.676l.402.005.403.004.005 2.143c.002 1.178.008 2.153.013 2.165.007.017.09.022.367.018l.359-.005.009-2.16zm6.875-.152c-.017-.043.006-.542.029-.614.052-.17.163-.253.337-.253.146 0 .238.055.3.178.04.079.044.112.05.402l.006.315h-.356c-.306 0-.357-.004-.366-.028zm.664 2.328c.349-.096.59-.33.681-.66a2.31 2.31 0 0 0 .039-.355l.01-.254h-.672l-.008.227c-.01.258-.036.347-.132.43-.102.087-.29.093-.411.013-.145-.096-.18-.258-.174-.785l.006-.374.695-.004.695-.005-.009-.555c-.011-.62-.024-.714-.13-.934-.203-.418-.763-.628-1.229-.462-.351.126-.559.353-.642.703-.03.124-.033.235-.033 1.142 0 1.112.004 1.157.12 1.385.206.405.724.617 1.194.488zm-2.753-.633c-.108.071-.266.049-.41-.059L13 16.38V14.11l.064-.048c.194-.145.406-.13.49.037.033.066.035.124.039 1.118.004.954.001 1.057-.027 1.138a.24.24 0 0 1-.093.129zm.421.64c.106-.03.234-.153.291-.279.11-.24.11-.247.11-1.601 0-1.112-.003-1.25-.03-1.37-.092-.384-.29-.552-.624-.528-.187.014-.334.087-.51.255a1.212 1.212 0 0 1-.154.132c-.007 0-.013-.369-.013-.818v-.818h-.653v5.014h.653v-.169c0-.112.007-.169.02-.169.01 0 .084.06.163.132.254.234.474.299.747.22zm-3.473-.016c.13-.048.284-.152.413-.28a.522.522 0 0 1 .131-.108c.017 0 .024.048.024.195v.196h.652v-3.716h-.652v2.867l-.141.136c-.112.11-.158.142-.227.16-.117.033-.19.01-.239-.07-.036-.06-.037-.088-.042-1.577l-.005-1.516h-.651v1.61c0 1.753.001 1.79.101 1.96.11.184.366.242.636.143zm.278 1.55a82.204 82.204 0 0 1-1.115-.025c-1.272-.045-2.145-.093-2.32-.128a1.292 1.292 0 0 1-.687-.408c-.258-.311-.396-.69-.463-1.27a18.95 18.95 0 0 1 .01-4.232c.07-.572.246-.985.54-1.273.169-.165.33-.256.546-.31.467-.117 4.12-.21 6.343-.162 1.284.028 2.67.086 3.04.127.476.053.81.296 1.043.755.175.347.23.617.302 1.45.055.658.07 1.069.059 1.83-.012.91-.07 1.712-.16 2.162-.093.476-.313.882-.598 1.101-.22.17-.454.246-.823.266-.11.007-.248.015-.308.02-.212.016-1.35.06-1.975.078-.928.026-2.552.034-3.434.02zM9.554 10.4c-.016-.025-.013-1.487.002-1.694.02-.266-.025-.475-.22-1.01-.063-.173-.176-.509-.252-.746-.55-1.714-.52-1.614-.468-1.614.362-.003.809-.001.814.004.003.003.12.422.26.93l.261.94c.003.009.085-.287.183-.658.205-.777.32-1.206.325-1.21.009-.008.11-.01.444-.008l.37.002-.009.058c-.006.047-.258.877-.522 1.72l-.163.534c-.06.2-.134.438-.164.529l-.053.165v1.03c0 .965-.002 1.03-.031 1.038-.067.018-.766.01-.777-.01zm4.768.062c-.182-.023-.289-.092-.361-.234-.092-.178-.092-.177-.092-1.95V6.626h.735l.008 1.525c.008 1.655.006 1.617.107 1.642.093.022.195-.027.323-.155l.123-.122.004-1.445.005-1.445.367-.005.367-.004v3.785l-.05.01c-.06.012-.617.011-.662-.001-.027-.007-.031-.032-.031-.18v-.172l-.104.1c-.24.229-.5.336-.739.304zm-1.85-.723c.126-.093.127-.102.133-1.166.006-.826.003-.967-.023-1.08-.034-.152-.095-.224-.213-.256-.153-.04-.293.046-.342.21-.037.126-.036 2.002.001 2.128.029.095.12.198.187.213a.348.348 0 0 0 .257-.049zm-.288.722c-.329-.039-.631-.228-.777-.487-.148-.264-.161-.402-.153-1.564.007-.9.01-.956.046-1.085.087-.307.255-.516.515-.643.357-.173.743-.15 1.08.064.215.135.345.333.415.626.03.13.033.23.033 1.138 0 1.105-.005 1.169-.12 1.408-.111.23-.362.434-.624.506-.116.03-.317.05-.415.037z"/>
    </defs>
    <g fill="none" fill-rule="evenodd" transform="translate(0 .618)">
        <mask id="b" fill="#fff">
            <use xlink:href="#a"/>
        </mask>
        <use fill="#000" fill-rule="nonzero" xlink:href="#a"/>
        <g fill="#F2FCFF" mask="url(#b)">
            <path d="M0 0h24v24H0z"/>
        </g>
    </g>
</svg>
